<svg xmlns="http://www.w3.org/2000/svg" xml:space="preserve" style="fill-rule:evenodd;clip-rule:evenodd;stroke-linejoin:round;stroke-miterlimit:2" viewBox="0 0 512 512"><path d="M0 128C0 57.312 57.312 0 128 0h256.001c70.688 0 128 57.312 128 128v256.001c0 70.688-57.312 128-128 128h-256C57.311 512.002 0 454.69 0 384.002v-256ZM191.446 331.17v29.024c0 43.787 26.005 75.2 64.79 75.2V279.297c0-8.096-5.206-13.803-13.249-13.803H87.872c0 39.019 31.211 65.675 74.72 65.675h28.854Zm76.608-77.568v29.024c0 43.787 26.486 75.19 65.27 75.19V201.717c0-8.085-5.675-13.323-13.718-13.323H164.481c0 39.03 31.22 65.206 74.73 65.206h28.843Zm77.088-77.1v28.556c0 43.776 26.016 75.19 64.8 75.19V124.15c0-7.616-5.205-13.323-13.247-13.323H241.569c0 39.019 31.221 65.675 74.73 65.675h28.843Z"/></svg>
