<svg xmlns="http://www.w3.org/2000/svg" xml:space="preserve" style="fill-rule:evenodd;clip-rule:evenodd;stroke-linejoin:round;stroke-miterlimit:2" viewBox="0 0 512 512"><path d="M0 12C0 5.373 5.373 0 12 0h24c6.627 0 12 5.373 12 12v24c0 6.627-5.373 12-12 12H12C5.373 48 0 42.627 0 36V12Zm17.948 19.047v2.721c0 4.105 2.438 7.05 6.074 7.05V26.184c0-.759-.488-1.294-1.242-1.294H8.238c0 3.658 2.926 6.157 7.005 6.157h2.705Zm7.182-7.272v2.721c0 4.105 2.483 7.049 6.119 7.049V18.911c0-.758-.532-1.249-1.286-1.249H15.42c0 3.659 2.927 6.113 7.006 6.113h2.704Zm7.227-7.228v2.677c0 4.104 2.439 7.049 6.075 7.049V11.639c0-.714-.488-1.249-1.242-1.249H22.647c0 3.658 2.927 6.157 7.006 6.157h2.704Z" style="fill:#fff" transform="scale(10.6667)"/></svg>
