<svg xmlns="http://www.w3.org/2000/svg" xml:space="preserve" style="fill-rule:evenodd;clip-rule:evenodd;stroke-linejoin:round;stroke-miterlimit:2" viewBox="0 0 16 16"><path d="M560-131v-82c60-17.333 108.333-50.667 145-100s55-105.333 55-168-18.333-118.667-55-168-85-82.667-145-100v-82c82.667 18.667 150 60.5 202 125.5s78 139.833 78 224.5-26 159.5-78 224.5S642.667-149.667 560-131ZM120-360v-240h160l200-200v640L280-360H120Zm440 40v-322c31.333 14.667 55.833 36.667 73.5 66s26.5 61.333 26.5 96c0 34-8.833 65.5-26.5 94.5S591.333-334.667 560-320Z" style="fill-rule:nonzero" transform="matrix(.01944 0 0 .01944 -1.333 17.358)"/><path d="M509.751-841.953a51.43 51.43 0 0 1 61.577-39.213c94.488 21.337 171.395 69.243 230.831 143.539 59.449 74.311 89.27 159.832 89.27 256.627 0 96.795-29.821 182.316-89.27 256.627-59.436 74.296-136.343 122.202-230.831 143.539a51.43 51.43 0 0 1-61.173-37.502 51.456 51.456 0 0 1-10.474 5.85 51.427 51.427 0 0 1-56.046-11.149L258.697-308.571H120c-28.403 0-51.429-23.026-51.429-51.429v-240c0-28.403 23.026-51.429 51.429-51.429l138.697.001 184.938-184.937a51.427 51.427 0 0 1 56.046-11.149 51.415 51.415 0 0 1 10.07 5.561ZM120-360h160l200 200v-640L280-600H120v240Zm440 40c31.333-14.667 55.833-36.5 73.5-65.5S660-446 660-480c0-34.667-8.833-66.667-26.5-96s-42.167-51.333-73.5-66v322Zm0 189c82.667-18.667 150-60.5 202-125.5s78-139.833 78-224.5-26-159.5-78-224.5S642.667-812.333 560-831v82c60 17.333 108.333 50.667 145 100s55 105.333 55 168-18.333 118.667-55 168-85 82.667-145 100v82Zm-28.571-124.767a51.356 51.356 0 0 1 14.298-6.641 246.948 246.948 0 0 0 19.2-6.399 51.432 51.432 0 0 1-32.528-7.798l-.97-.633v21.471Zm0-428.995.97-.633a51.432 51.432 0 0 1 32.528-7.798 246.948 246.948 0 0 0-19.2-6.399 51.356 51.356 0 0 1-14.298-6.641v21.471Z" style="fill:#fff" transform="matrix(.01944 0 0 .01944 -1.333 17.358)"/></svg>
